<svg width="1600" height="1200" viewBox="0 0 1600 1200" fill="none" xmlns="http://www.w3.org/2000/svg">
  <rect width="1600" height="1200" fill="#0D0D0D"/>
  <rect width="1600" height="1200" fill="url(#paint0_linear_1_2)" fill-opacity="0.46"/>
  <path d="M0 830L520 520L730 700L1040 430L1600 860V1200H0V830Z" fill="#161616"/>
  <path d="M0 930L520 610L730 800L1040 540L1600 960V1200H0V930Z" fill="#1F1F1F" fill-opacity="0.7"/>
  <rect x="230" y="210" width="340" height="470" fill="#E2001A" fill-opacity="0.16"/>
  <rect x="600" y="270" width="458" height="410" fill="#FFFFFF" fill-opacity="0.1"/>
  <rect x="1080" y="220" width="220" height="510" fill="#FFFFFF" fill-opacity="0.14"/>
  <path d="M235 644H565V680H235V644Z" fill="#FFFFFF" fill-opacity="0.85"/>
  <path d="M605 670H1052V708H605V670Z" fill="#FFFFFF" fill-opacity="0.85"/>
  <path d="M1088 720H1288V760H1088V720Z" fill="#FFFFFF" fill-opacity="0.85"/>
  <rect x="295" y="275" width="200" height="345" fill="#E2001A" fill-opacity="0.22"/>
  <rect x="662" y="332" width="330" height="265" fill="#FFFFFF" fill-opacity="0.16"/>
  <rect x="1115" y="280" width="145" height="350" fill="#FFFFFF" fill-opacity="0.18"/>
  <defs>
    <linearGradient id="paint0_linear_1_2" x1="800" y1="0" x2="800" y2="1200" gradientUnits="userSpaceOnUse">
      <stop stop-color="#161616"/>
      <stop offset="1" stop-color="#0D0D0D"/>
    </linearGradient>
  </defs>
</svg>
